<svg width="260" height="96" viewBox="0 0 260 96" fill="none" xmlns="http://www.w3.org/2000/svg">
<path d="M14.1178 59.6849C10.7436 59.6849 8.30362 58.9453 6.79792 57.4615C5.29221 55.9823 4.72984 53.7952 5.11987 50.9138L6.00878 44.652C6.42149 41.7162 7.59158 39.4927 9.5236 37.9863C11.4556 36.4798 14.0951 35.7266 17.4421 35.7266C20.4309 35.7266 22.6305 36.4027 24.0455 37.7549C25.4605 39.1071 26.0773 41.0854 25.9004 43.6855L22.0772 43.9169C22.2042 42.3196 21.8459 41.1353 20.9978 40.364C20.1497 39.5926 18.7846 39.2069 16.9024 39.2069C14.789 39.2069 13.1563 39.6516 11.9998 40.5409C10.8388 41.4303 10.1313 42.8006 9.87735 44.6565L8.98844 50.9183C8.75714 52.6971 9.09729 54.022 10.0134 54.8978C10.925 55.7735 12.4534 56.2137 14.5895 56.2137C16.4444 56.2137 17.8911 55.887 18.9342 55.229C19.9773 54.5711 20.6395 53.5864 20.9252 52.2751L24.6713 52.5065C24.1543 54.8751 23.016 56.6674 21.2518 57.879C19.4875 59.0905 17.1111 59.694 14.1269 59.694L14.1178 59.6849Z" fill="black"/>
<path d="M28.1339 59.2966L31.3766 36.1142H35.2407L34.701 39.9802H35.8575C36.6058 38.51 37.5808 37.4346 38.7918 36.754C40.0027 36.0734 41.3905 35.7285 42.9642 35.7285C44.6876 35.7285 46.0482 36.3002 47.0368 37.4483C48.0301 38.5963 48.3838 40.2116 48.0981 42.2989L47.5947 45.7747H43.9257L44.2341 43.6874C44.4381 42.2172 44.2613 41.1373 43.6944 40.443C43.1275 39.7488 42.1751 39.3994 40.8372 39.3994C39.6262 39.3994 38.4879 39.6943 37.4176 40.2888C36.3473 40.8832 35.2996 41.8089 34.2701 43.0703L31.9934 59.3012H28.1294L28.1339 59.2966Z" fill="black"/>
<path d="M68.7988 54.199C67.8192 56.132 66.5629 57.5296 65.0345 58.3917C63.5016 59.2538 61.2703 59.6849 58.336 59.6849C55.4017 59.6849 52.9934 58.9453 51.5013 57.4615C50.0092 55.9823 49.465 53.7861 49.8777 50.873L50.7258 44.652C51.1612 41.6662 52.3812 39.4292 54.3767 37.95C56.3722 36.4707 58.8122 35.7266 61.6966 35.7266C64.581 35.7266 66.8259 36.4798 68.3589 37.9863C69.8918 39.4927 70.436 41.8069 70.0006 44.9242L69.4972 48.4771H54.0502L53.7009 50.9138C53.4424 52.8468 53.7418 54.2444 54.5898 55.1065C55.4379 55.9686 56.8303 56.3997 58.7623 56.3997C60.6943 56.3997 62.0004 56.1411 62.912 55.6283C63.8236 55.1156 64.581 54.2761 65.1706 53.1145L68.7988 54.1945V54.199ZM54.5853 44.652L54.4674 45.5776H66.0549L66.132 44.9968C66.4132 42.9095 66.1457 41.3894 65.3202 40.4366C64.4948 39.4837 63.1206 39.0072 61.1886 39.0072C59.2566 39.0072 57.7464 39.4655 56.6488 40.3776C55.5559 41.2942 54.8665 42.7144 54.5808 44.6474L54.5853 44.652Z" fill="black"/>
<path d="M81.5308 59.6895C79.5761 59.6895 77.7212 59.3991 75.9706 58.8182C74.22 58.2374 72.6599 57.3435 71.2993 56.132L73.4626 53.0782C74.5692 54.1082 75.8618 54.8887 77.3448 55.4151C78.8233 55.9414 80.3743 56.2091 81.998 56.2091C83.3359 56.2091 84.6511 56.005 85.9391 55.5966C87.2271 55.1882 87.9618 54.317 88.1387 52.9829C88.2929 51.8803 87.8983 51.0998 86.9595 50.637C86.0207 50.1742 84.2384 49.7794 81.6125 49.4482C78.8324 49.1124 76.787 48.4454 75.4717 47.4516C74.1565 46.4579 73.644 44.8879 73.9252 42.7416C74.2608 40.4184 75.3856 38.6669 77.304 37.4917C79.2224 36.3164 81.3404 35.7266 83.6579 35.7266C85.4856 35.7266 87.1999 36.0351 88.7963 36.6522C90.3927 37.2693 91.8349 38.1451 93.1229 39.2795L90.9596 42.3333C89.9029 41.3804 88.7192 40.6226 87.4085 40.0554C86.0933 39.4882 84.6783 39.2069 83.159 39.2069C81.9209 39.2069 80.7644 39.4383 79.685 39.9011C78.6056 40.364 77.9707 41.217 77.7938 42.4512C77.6668 43.5085 78.0296 44.2753 78.8959 44.7518C79.7576 45.2282 81.5036 45.6366 84.1295 45.9679C87.0412 46.3036 89.15 47.016 90.4653 48.1141C91.7805 49.2077 92.293 50.7368 92.0118 52.6925C91.6762 55.1156 90.4517 56.8852 88.3428 58.006C86.2294 59.1268 83.9663 59.6895 81.5444 59.6895H81.5308Z" fill="black"/>
<path d="M107.066 59.6464C104.517 59.6464 102.626 59.0156 101.388 57.7542C100.15 56.4928 99.7144 54.5598 100.073 51.9597L101.81 39.5949H95.2427L95.7053 36.1191H102.272L103.352 28.3916H107.216L106.136 36.1191H116.177L115.715 39.5949H105.674L103.973 51.6103C103.764 53.1032 103.987 54.2149 104.631 54.9318C105.275 55.6533 106.331 56.0118 107.796 56.0118C108.776 56.0118 109.697 55.9392 110.558 55.7985C111.42 55.6578 112.263 55.4718 113.089 55.2404L113.361 58.757C112.458 59.0156 111.502 59.2289 110.486 59.3968C109.47 59.5647 108.327 59.6464 107.066 59.6464Z" fill="black"/>
<path d="M135.981 67.4133C130.807 66.4604 127.002 64.1826 124.571 60.5752C122.135 56.9678 120.92 52.6798 120.92 47.7067C120.92 42.7335 122.135 38.5408 124.571 34.8971C127.002 31.2534 130.807 28.9529 135.981 28L136.562 32.0203C132.907 32.9732 130.349 34.829 128.897 37.5833C127.442 40.3422 126.716 43.7136 126.716 47.7067C126.716 51.6997 127.442 55.0484 128.897 57.7528C130.353 60.4572 132.907 62.2859 136.562 63.2388L135.981 67.4133Z" fill="url(#paint0_radial_933_4592)"/>
<path d="M152.726 55.2436C152.082 56.6366 151.161 57.7211 149.964 58.5106C148.767 59.2956 147.397 59.6904 145.851 59.6904C143.61 59.6904 141.878 58.919 140.658 57.3717C139.438 55.8244 138.826 53.8414 138.826 51.4229V44.5848C138.826 41.8305 139.687 39.6797 141.415 38.1324C143.139 36.5851 145.533 35.8137 148.599 35.8137C149.524 35.8137 150.44 35.8954 151.343 36.0633C152.245 36.2311 153.093 36.4671 153.892 36.7802V28.3857H159.683V59.3001H153.892V55.2436H152.726ZM148.286 54.935C149.288 54.935 150.241 54.69 151.143 54.1999C152.046 53.7099 152.957 52.9612 153.887 51.9584V41.4085C153.243 40.9956 152.536 40.687 151.765 40.4829C150.994 40.2787 150.195 40.1743 149.37 40.1743C147.774 40.1743 146.581 40.5418 145.796 41.2769C145.012 42.012 144.617 43.1237 144.617 44.6211V50.647C144.617 52.1172 144.93 53.1971 145.565 53.8914C146.195 54.5856 147.102 54.935 148.286 54.935Z" fill="url(#paint1_radial_933_4592)"/>
<path d="M172.858 59.6858C170.745 59.6858 168.976 59.1186 167.547 57.9842C166.119 56.8499 165.402 55.1891 165.402 52.9975C165.402 50.8058 166.123 49.254 167.565 48.1105C169.008 46.9625 170.849 46.3908 173.089 46.3908H179.693V43.4141C179.693 42.257 179.343 41.404 178.65 40.864C177.956 40.324 176.913 40.0518 175.52 40.0518C174.128 40.0518 173.048 40.2923 172.355 40.7687C171.661 41.2452 171.13 42.2162 170.772 43.6864L165.946 42.7199C166.459 40.2469 167.479 38.4636 168.999 37.3701C170.518 36.2765 172.731 35.7275 175.643 35.7275C178.554 35.7275 181.017 36.331 182.731 37.5425C184.446 38.754 185.298 40.6326 185.298 43.1827V52.5346C185.298 53.7189 185.647 54.454 186.341 54.7353C187.035 55.0167 188.042 55.0711 189.353 54.8896V59.2548C187.475 59.6405 185.856 59.5815 184.505 59.0823C183.153 58.5787 182.309 57.4261 181.974 55.6247H181.008C180.237 56.7319 179.126 57.6848 177.688 58.4834C176.246 59.282 174.636 59.6813 172.863 59.6813L172.858 59.6858ZM174.132 55.7064C175.212 55.7064 176.219 55.534 177.144 55.1846C178.069 54.8352 178.922 54.2907 179.693 53.542V49.7939H173.901C172.949 49.7939 172.196 50.0027 171.643 50.411C171.089 50.8194 170.813 51.6226 170.813 52.8069C170.813 53.7325 171.071 54.4495 171.584 54.9532C172.096 55.4568 172.949 55.7064 174.132 55.7064Z" fill="url(#paint2_radial_933_4592)"/>
<path d="M204.913 59.6858C202.029 59.6858 199.797 59.0052 198.21 57.6394C196.627 56.2736 195.834 54.2634 195.834 51.6135V40.5645H189.847V36.1222H195.834V28.3857H201.625V36.1132H210.895V40.5555H201.625V50.8739C201.625 52.3441 201.974 53.4195 202.668 54.1001C203.362 54.7807 204.342 55.1256 205.603 55.1256C206.401 55.1256 207.213 55.0666 208.033 54.9532C208.859 54.8352 209.666 54.6355 210.469 54.3542L211.24 58.7602C210.546 59.0188 209.648 59.2366 208.555 59.4181C207.462 59.5996 206.242 59.6904 204.904 59.6904L204.913 59.6858Z" fill="url(#paint3_radial_933_4592)"/>
<path d="M223.1 59.6858C220.986 59.6858 219.217 59.1186 217.789 57.9842C216.36 56.8499 215.644 55.1891 215.644 52.9975C215.644 50.8058 216.365 49.254 217.807 48.1105C219.249 46.9625 221.09 46.3908 223.331 46.3908H229.934V43.4141C229.934 42.257 229.585 41.404 228.891 40.864C228.197 40.324 227.154 40.0518 225.762 40.0518C224.369 40.0518 223.29 40.2923 222.596 40.7687C221.902 41.2452 221.372 42.2162 221.013 43.6864L216.188 42.7199C216.7 40.2469 217.721 38.4636 219.24 37.3701C220.759 36.2765 222.973 35.7275 225.884 35.7275C228.796 35.7275 231.258 36.331 232.973 37.5425C234.687 38.754 235.54 40.6326 235.54 43.1827V52.5346C235.54 53.7189 235.889 54.454 236.583 54.7353C237.277 55.0167 238.284 55.0711 239.594 54.8896V59.2548C237.717 59.6405 236.098 59.5815 234.746 59.0823C233.395 58.5787 232.551 57.4261 232.215 55.6247H231.249C230.478 56.7319 229.372 57.6848 227.93 58.4834C226.487 59.282 224.877 59.6813 223.104 59.6813L223.1 59.6858ZM224.374 55.7064C225.453 55.7064 226.46 55.534 227.385 55.1846C228.311 54.8352 229.163 54.2907 229.934 53.542V49.7939H224.143C223.19 49.7939 222.437 50.0027 221.884 50.411C221.331 50.824 221.054 51.6226 221.054 52.8069C221.054 53.7325 221.313 54.4495 221.825 54.9532C222.338 55.4568 223.19 55.7064 224.374 55.7064Z" fill="url(#paint4_radial_933_4592)"/>
<path d="M239.629 67.4133L239.048 63.2388C242.704 62.2859 245.261 60.43 246.713 57.6757C248.168 54.9214 248.894 51.5954 248.894 47.7067C248.894 43.818 248.164 40.5963 246.713 37.7376C245.257 34.879 242.704 32.9732 239.048 32.0203L239.629 28C244.803 28.9529 248.608 31.258 251.039 34.9153C253.475 38.5725 254.69 42.8378 254.69 47.7067C254.69 52.5755 253.475 56.9678 251.039 60.5752C248.608 64.1826 244.803 66.4604 239.629 67.4133Z" fill="url(#paint5_radial_933_4592)"/>
<defs>
<radialGradient id="paint0_radial_933_4592" cx="0" cy="0" r="1" gradientUnits="userSpaceOnUse" gradientTransform="translate(242.647 35.629) rotate(165.94) scale(130.832 68.0384)">
<stop stop-color="#8738ED"/>
<stop offset="0.645" stop-color="#3B168F"/>
<stop offset="1" stop-color="#13044A"/>
</radialGradient>
<radialGradient id="paint1_radial_933_4592" cx="0" cy="0" r="1" gradientUnits="userSpaceOnUse" gradientTransform="translate(242.647 35.629) rotate(165.94) scale(130.832 68.0384)">
<stop stop-color="#8738ED"/>
<stop offset="0.645" stop-color="#3B168F"/>
<stop offset="1" stop-color="#13044A"/>
</radialGradient>
<radialGradient id="paint2_radial_933_4592" cx="0" cy="0" r="1" gradientUnits="userSpaceOnUse" gradientTransform="translate(242.647 35.629) rotate(165.94) scale(130.832 68.0384)">
<stop stop-color="#8738ED"/>
<stop offset="0.645" stop-color="#3B168F"/>
<stop offset="1" stop-color="#13044A"/>
</radialGradient>
<radialGradient id="paint3_radial_933_4592" cx="0" cy="0" r="1" gradientUnits="userSpaceOnUse" gradientTransform="translate(242.647 35.629) rotate(165.94) scale(130.832 68.0384)">
<stop stop-color="#8738ED"/>
<stop offset="0.645" stop-color="#3B168F"/>
<stop offset="1" stop-color="#13044A"/>
</radialGradient>
<radialGradient id="paint4_radial_933_4592" cx="0" cy="0" r="1" gradientUnits="userSpaceOnUse" gradientTransform="translate(242.647 35.629) rotate(165.94) scale(130.832 68.0384)">
<stop stop-color="#8738ED"/>
<stop offset="0.645" stop-color="#3B168F"/>
<stop offset="1" stop-color="#13044A"/>
</radialGradient>
<radialGradient id="paint5_radial_933_4592" cx="0" cy="0" r="1" gradientUnits="userSpaceOnUse" gradientTransform="translate(242.647 35.629) rotate(165.94) scale(130.832 68.0384)">
<stop stop-color="#8738ED"/>
<stop offset="0.645" stop-color="#3B168F"/>
<stop offset="1" stop-color="#13044A"/>
</radialGradient>
</defs>
</svg>
